PathFileType	4	(X/Y/Z)	D:\TRACE\v60_Jaco2_6-2-23\JustBodyDRS_Motion1_9-v60.trc
DataRate	CameraRate	NumFrames	NumMarkers	Units	OrigDataRate	OrigDataStartFrame	OrigNumFrames
100.00	100.00	      13	9	mm	100.00	2534	      6756
Frame#	Time	front left toe			Front right toe			aft left toe			aft right toe			Arm			FL body			FR body			AL Body			AR Body			
		X1	Y1	Z1	X2	Y2	Z2	X3	Y3	Z3	X4	Y4	Z4	X5	Y5	Z5	X6	Y6	Z6	X7	Y7	Z7	X8	Y8	Z8	X9	Y9	Z9	

2534	25.330	-200.79718	21.76461	-251.29317	174.68797	151.24870	-281.94885	-167.14084	138.37550	362.93307	210.01593	12.23154	347.63278	-120.06694	1221.40112	-370.65826	-98.73512	590.43378	-395.63263	61.41114	589.75568	-405.79510	-41.62293	544.09045	547.64014	114.59500	537.43817	538.47363	
2535	25.340	-201.25240	21.61042	-251.40607	174.50037	146.88225	-283.33194	-163.51823	134.00160	363.51382	209.48724	12.45928	347.43250	-120.00300	1221.93225	-372.83820	-99.08043	589.94806	-395.85208	61.11965	589.46454	-406.69098	-40.72558	544.70276	547.38025	115.63840	538.17645	537.73260	
2536	25.350	-202.20683	21.39488	-251.46173	174.48491	141.39764	-284.82617	-161.27025	130.24442	363.42514	208.98375	12.64081	347.39243	-122.14393	1220.80237	-372.52457	-100.24665	589.46222	-396.46860	59.63549	588.72400	-406.89447	-40.02551	545.21906	546.93451	115.98793	538.75916	537.08099	
2537	25.360	-203.05087	21.22086	-251.25281	174.03288	135.12190	-286.52899	-159.65446	125.35845	363.46732	208.37628	12.72034	347.34317	-122.89889	1220.47559	-373.07532	-101.12203	589.25702	-396.90588	58.93148	587.98883	-407.54230	-39.09473	546.04126	546.13330	116.49979	539.12628	536.43231	
2538	25.370	-203.78935	20.66787	-251.36183	174.21313	128.16750	-288.37326	-157.63997	119.21346	363.44580	207.27170	12.63399	347.02380	-123.55299	1220.03552	-374.07578	-101.68489	588.37128	-397.18225	57.46012	587.56219	-408.13144	-38.88953	546.43420	545.74249	117.10906	539.51343	535.48700	
2539	25.380	-204.23059	20.34643	-251.62996	174.82523	120.53928	-290.29211	-156.25899	112.19316	362.74377	206.64975	12.80498	346.63763	-123.86633	1220.06494	-375.28757	-103.06421	588.33051	-397.86252	56.52882	587.20892	-408.98727	-38.25851	546.47888	545.29004	117.80823	539.97034	534.76428	
2540	25.390	-205.09079	20.30066	-251.48270	176.12567	112.77789	-292.24146	-153.03572	102.60102	362.35202	206.29619	13.14421	346.47879	-123.99398	1219.90491	-376.30576	-104.31885	588.22559	-398.40979	55.40474	586.99084	-409.74265	-37.82701	547.24646	544.50024	118.13708	540.19678	533.90588	
2541	25.400	-205.79764	20.06771	-251.52638	176.77879	104.54971	-294.63605	-150.91527	92.68303	361.62228	205.64812	13.24076	346.13345	-124.45542	1219.72632	-377.27374	-105.11181	587.58051	-399.05518	54.45955	586.73608	-410.53220	-37.17324	547.52539	543.88147	118.61308	540.51001	533.02417	
2542	25.410	-206.41812	19.57861	-251.48866	177.51086	96.09946	-297.18082	-148.76527	82.58878	360.43759	204.86528	13.31173	345.86649	-125.75020	1219.34863	-378.79230	-105.89435	587.43982	-399.64673	53.70818	586.30890	-411.42426	-36.90685	547.45325	543.03571	119.03001	540.88489	532.08472	
2543	25.420	-207.44987	19.62546	-251.77904	177.64702	87.13754	-299.24106	-146.50195	72.80671	358.67169	204.13649	13.49966	345.87814	-127.61572	1218.51965	-379.21277	-106.82809	586.95483	-400.38812	52.77628	585.79944	-411.93561	-36.82919	548.03101	542.36926	119.19218	541.14612	531.14886	
2544	25.430	-208.38626	19.60664	-251.98460	177.58089	78.05746	-300.97479	-144.75053	63.44010	356.83154	203.17575	13.71128	345.71033	-128.09746	1218.24878	-380.64154	-107.55621	586.64630	-401.19867	52.41243	585.74597	-413.55792	-36.77408	547.89935	541.66931	119.42907	541.49927	530.10327	
2545	25.440	-209.05066	19.15065	-252.08650	177.79802	69.28207	-302.05145	-143.88464	54.07750	355.15735	202.54402	13.82373	345.64862	-129.57188	1218.07251	-381.68625	-108.00633	586.35406	-401.74658	51.59029	585.43341	-414.44708	-36.37392	548.53528	540.59857	119.82851	541.71533	529.30920	
2546	25.450	-209.71866	18.85640	-252.11119	177.89923	60.72832	-303.15982	-144.75433	45.35646	353.69214	201.63777	13.92219	345.35577	-130.79880	1217.89258	-382.83301	-109.00302	585.96271	-402.63480	51.08692	585.13397	-415.45328	-36.16889	548.24884	539.96234	119.55299	541.96576	527.96375	
